<svg viewBox="0 0 24 24" fill="none" xmlns="http://www.w3.org/2000/svg">
  <path d="M18 4H6C4.89543 4 4 4.89543 4 6V18C4 19.1046 4.89543 20 6 20H18C19.1046 20 20 19.1046 20 18V6C20 4.89543 19.1046 4 18 4Z" stroke="black" stroke-width="2" stroke-linecap="round" stroke-linejoin="round"/>
  <path d="M8.54509 16.2338V8.23382" stroke="black" stroke-width="2" stroke-linecap="round" stroke-linejoin="round"/>
  <path d="M11.7478 8.23382V16.2338H13.7478C14.2783 16.2338 14.787 16.0231 15.162 15.648C15.5371 15.273 15.7478 14.7643 15.7478 14.2338V10.2338C15.7478 9.70339 15.5371 9.19468 15.162 8.8196C14.787 8.44453 14.2783 8.23382 13.7478 8.23382H11.7478Z" stroke="black" stroke-width="2" stroke-linecap="round" stroke-linejoin="round"/>
</svg>
